{
    "accessors" : [
        {
            "bufferView" : 0,
            "componentType" : 5123,
            "count" : 96456,
            "max" : [
                18193
            ],
            "min" : [
                0
            ],
            "type" : "SCALAR"
        },
        {
            "bufferView" : 1,
            "componentType" : 5126,
            "count" : 18194,
            "max" : [
                78.85380554199219,
                118.55247497558594,
                -9.118379592895508
            ],
            "min" : [
                -78.89928436279297,
                -61.186405181884766,
                -54.69660568237305
            ],
            "type" : "VEC3"
        },
        {
            "bufferView" : 2,
            "componentType" : 5126,
            "count" : 18194,
            "max" : [
                0.999969482421875,
                0.99993896484375,
                0.99993896484375
            ],
            "min" : [
                -0.999969482421875,
                -0.99969482421875,
                -0.99969482421875
            ],
            "type" : "VEC3"
        },
        {
            "bufferView" : 3,
            "componentType" : 5126,
            "count" : 18194,
            "max" : [
                0.9999420642852783,
                0.9999914765357971,
                0.9999994039535522,
                1.0
            ],
            "min" : [
                -0.9999533295631409,
                -0.9990631341934204,
                -0.9998510479927063,
                -1.0
            ],
            "type" : "VEC4"
        },
        {
            "bufferView" : 4,
            "componentType" : 5126,
            "count" : 18194,
            "max" : [
                0.996999979019165,
                0.9909629821777344
            ],
            "min" : [
                0.003000000026077032,
                0.003000020980834961
            ],
            "type" : "VEC2"
        },
        {
            "bufferView" : 5,
            "componentType" : 5125,
            "count" : 1067700,
            "max" : [
                321363
            ],
            "min" : [
                0
            ],
            "type" : "SCALAR"
        },
        {
            "bufferView" : 6,
            "componentType" : 5126,
            "count" : 321364,
            "max" : [
                88.4849624633789,
                132.24966430664062,
                81.73219299316406
            ],
            "min" : [
                -89.9715347290039,
                -73.57601165771484,
                -140.38687133789062
            ],
            "type" : "VEC3"
        },
        {
            "bufferView" : 7,
            "componentType" : 5126,
            "count" : 321364,
            "max" : [
                0.999847412109375,
                0.999969482421875,
                0.999969482421875
            ],
            "min" : [
                -0.99993896484375,
                -0.999969482421875,
                -0.999969482421875
            ],
            "type" : "VEC3"
        },
        {
            "bufferView" : 8,
            "componentType" : 5126,
            "count" : 321364,
            "max" : [
                1.0,
                1.0,
                1.0,
                1.0
            ],
            "min" : [
                0.00439144208084077,
                0.002731742977450138,
                0.001821161936910898,
                1.0
            ],
            "type" : "VEC4"
        }
    ],
    "asset" : {
        "generator" : "Khronos Blender glTF 2.0 exporter",
        "version" : "2.0"
    },
    "bufferViews" : [
        {
            "buffer" : 0,
            "byteLength" : 192912,
            "byteOffset" : 0,
            "target" : 34963
        },
        {
            "buffer" : 0,
            "byteLength" : 218328,
            "byteOffset" : 192912,
            "target" : 34962
        },
        {
            "buffer" : 0,
            "byteLength" : 218328,
            "byteOffset" : 411240,
            "target" : 34962
        },
        {
            "buffer" : 0,
            "byteLength" : 291104,
            "byteOffset" : 629568,
            "target" : 34962
        },
        {
            "buffer" : 0,
            "byteLength" : 145552,
            "byteOffset" : 920672,
            "target" : 34962
        },
        {
            "buffer" : 0,
            "byteLength" : 4270800,
            "byteOffset" : 1066224,
            "target" : 34963
        },
        {
            "buffer" : 0,
            "byteLength" : 3856368,
            "byteOffset" : 5337024,
            "target" : 34962
        },
        {
            "buffer" : 0,
            "byteLength" : 3856368,
            "byteOffset" : 9193392,
            "target" : 34962
        },
        {
            "buffer" : 0,
            "byteLength" : 5141824,
            "byteOffset" : 13049760,
            "target" : 34962
        }
    ],
    "buffers" : [
        {
            "byteLength" : 18191584,
            "uri" : "scene.bin"
        }
    ],
    "images" : [
        {
            "name" : "images[0]",
            "uri" : "images[0].png"
        },
        {
            "name" : "images[1]",
            "uri" : "images[1].png"
        },
        {
            "name" : "images[2]",
            "uri" : "images[2].png"
        }
    ],
    "materials" : [
        {
            "alphaMode" : "BLEND",
            "doubleSided" : true,
            "name" : "Material__137.005",
            "normalTexture" : {
                "index" : 2
            },
            "occlusionTexture" : {
                "index" : 1
            },
            "pbrMetallicRoughness" : {
                "baseColorTexture" : {
                    "index" : 0
                },
                "metallicRoughnessTexture" : {
                    "index" : 1
                }
            }
        }
    ],
    "meshes" : [
        {
            "name" : "defaultMaterial.005",
            "primitives" : [
                {
                    "attributes" : {
                        "NORMAL" : 2,
                        "POSITION" : 1,
                        "TANGENT" : 3,
                        "TEXCOORD_0" : 4
                    },
                    "indices" : 0,
                    "material" : 0
                }
            ]
        },
        {
            "name" : "baseFace_full",
            "primitives" : [
                {
                    "attributes" : {
                        "COLOR_0" : 8,
                        "NORMAL" : 7,
                        "POSITION" : 6
                    },
                    "indices" : 5
                }
            ]
        }
    ],
    "nodes" : [
        {
            "mesh" : 1,
            "name" : "baseFace_full"
        },
        {
            "name" : "Camera",
            "rotation" : [
                0.483536034822464,
                0.33687159419059753,
                -0.20870360732078552,
                0.7804827094078064
            ],
            "translation" : [
                7.481131553649902,
                5.34366512298584,
                6.5076398849487305
            ]
        },
        {
            "children" : [
                4
            ],
            "name" : "Collada visual scene group",
            "rotation" : [
                0.7071068286895752,
                0.0,
                -0.0,
                0.7071067094802856
            ],
            "scale" : [
                1.0,
                0.9999998807907104,
                0.9999998807907104
            ]
        },
        {
            "name" : "Lamp",
            "rotation" : [
                0.16907575726509094,
                0.7558802962303162,
                -0.27217137813568115,
                0.570947527885437
            ],
            "scale" : [
                1.0,
                1.0,
                0.9999999403953552
            ],
            "translation" : [
                119.92753601074219,
                133.27053833007812,
                -47.807430267333984
            ]
        },
        {
            "name" : "Object007"
        },
        {
            "children" : [
                6
            ],
            "name" : "RootNode (gltf orientation matrix)",
            "rotation" : [
                -0.7071068286895752,
                0.0,
                -0.0,
                0.7071067094802856
            ],
            "scale" : [
                1.0,
                0.9999997019767761,
                0.9999997019767761
            ]
        },
        {
            "children" : [
                2
            ],
            "name" : "RootNode (model correction matrix)"
        },
        {
            "mesh" : 0,
            "name" : "roshan"
        }
    ],
    "samplers" : [
        {}
    ],
    "scene" : 0,
    "scenes" : [
        {
            "name" : "Scene",
            "nodes" : [
                7,
                5,
                0,
                3,
                1
            ]
        }
    ],
    "textures" : [
        {
            "sampler" : 0,
            "source" : 0
        },
        {
            "sampler" : 0,
            "source" : 1
        },
        {
            "sampler" : 0,
            "source" : 2
        },
        {
            "sampler" : 0,
            "source" : 1
        }
    ]
}
