ply
format ascii 1.0
comment Created by Blender 2.79 (sub 0) - www.blender.org, source file: ''
element vertex 611
property float x
property float y
property float z
property uchar red
property uchar green
property uchar blue
element face 1080
property list uchar uint vertex_indices
end_header
0.070440 -1.260162 3.044307 0 0 0
-0.000948 -1.231134 3.049948 0 0 0
-0.000949 -1.330240 3.030691 0 0 0
-0.072337 -1.260162 3.044307 0 0 0
-0.101907 -1.330240 3.030691 0 0 0
-0.072337 -1.400318 3.017077 0 0 0
-0.000948 -1.429346 3.011436 0 0 0
0.070440 -1.400318 3.017077 0 0 0
0.100010 -1.330240 3.030691 0 0 0
0.107515 -0.978241 2.950034 151 31 26
0.047475 -0.966225 2.952673 151 31 26
0.000000 -1.282172 2.901013 151 31 26
0.000000 -1.615634 2.835102 151 31 26
0.051282 -1.602324 2.836783 151 31 26
0.109519 -1.589786 2.838366 151 31 26
0.203766 -1.543318 2.847776 151 31 26
0.259977 -1.469780 2.857563 151 31 26
0.300923 -1.285102 2.888436 151 31 26
0.278212 -1.154478 2.913816 151 31 26
0.272719 -1.145568 2.915642 151 31 26
0.212928 -1.048579 2.935531 151 31 26
0.159549 -1.012961 2.942874 151 31 26
0.000000 -0.953616 2.955446 151 31 26
0.103452 -0.974314 2.885191 151 31 26
0.000000 -1.275050 2.837007 151 31 26
0.045165 -0.962055 2.887762 151 31 26
0.000000 -1.595806 2.773108 151 31 26
0.048427 -1.583030 2.774751 151 31 26
0.103975 -1.570995 2.776296 151 31 26
0.193248 -1.527124 2.785618 151 31 26
0.246871 -1.456068 2.795303 151 31 26
0.287330 -1.272098 2.826128 151 31 26
0.266528 -1.144008 2.850647 151 31 26
0.257814 -1.129631 2.853560 151 31 26
0.249100 -1.115253 2.856474 151 31 26
0.204993 -1.042480 2.871218 151 31 26
0.142409 -1.000466 2.879832 151 31 26
0.000000 -0.950228 2.890446 151 31 26
0.262801 -1.129479 2.918942 151 31 26
0.235535 -1.085250 2.928011 151 31 26
0.231672 -1.086498 2.862298 151 31 26
-0.107514 -0.978241 2.950034 151 31 26
-0.047474 -0.966225 2.952673 151 31 26
-0.051281 -1.602324 2.836783 151 31 26
-0.109519 -1.589786 2.838366 151 31 26
-0.203766 -1.543318 2.847776 151 31 26
-0.259977 -1.469780 2.857563 151 31 26
-0.300922 -1.285102 2.888436 151 31 26
-0.278212 -1.154478 2.913816 151 31 26
-0.272719 -1.145568 2.915642 151 31 26
-0.212928 -1.048579 2.935531 151 31 26
-0.159549 -1.012961 2.942874 151 31 26
-0.103452 -0.974314 2.885191 151 31 26
-0.045164 -0.962055 2.887762 151 31 26
-0.048427 -1.583030 2.774751 151 31 26
-0.103975 -1.570995 2.776296 151 31 26
-0.193248 -1.527124 2.785618 151 31 26
-0.246870 -1.456068 2.795303 151 31 26
-0.287329 -1.272098 2.826128 151 31 26
-0.266528 -1.144008 2.850647 151 31 26
-0.257814 -1.129631 2.853560 151 31 26
-0.249099 -1.115253 2.856474 151 31 26
-0.204993 -1.042480 2.871218 151 31 26
-0.142409 -1.000466 2.879832 151 31 26
-0.235535 -1.085250 2.928011 151 31 26
-0.262800 -1.129479 2.918942 151 31 26
-0.231672 -1.086498 2.862298 151 31 26
-0.511468 -2.677798 0.017253 151 31 26
-0.511468 -2.624643 0.028908 151 31 26
-0.297769 -2.710061 0.028908 151 31 26
-0.297769 -2.763216 0.017253 151 31 26
-0.612162 -2.697837 0.071890 151 31 26
-0.773854 -2.638016 0.108652 151 31 26
-0.773854 -2.617977 0.017253 151 31 26
-0.511468 -2.567465 0.041445 151 31 26
-0.297769 -2.652884 0.041444 151 31 26
0.372097 -2.750812 0.394502 151 31 26
0.697145 -2.725322 0.394502 151 31 26
0.697145 -2.668142 0.407038 151 31 26
0.372097 -2.693634 0.407038 151 31 26
-0.511468 -2.757957 0.382847 151 31 26
-0.511468 -2.704802 0.394502 151 31 26
-0.773854 -2.644980 0.394502 151 31 26
-0.773854 -2.698135 0.382847 151 31 26
-0.612162 -2.644682 0.083545 151 31 26
-0.612162 -2.587504 0.096082 151 31 26
0.254297 -2.763844 0.017253 151 31 26
0.254297 -2.710688 0.028908 151 31 26
0.372097 -2.670653 0.028908 151 31 26
0.372097 -2.723808 0.017253 151 31 26
0.254297 -2.653511 0.041444 151 31 26
0.372097 -2.613475 0.041444 151 31 26
-0.297769 -2.790220 0.394502 151 31 26
-0.297769 -2.733042 0.407038 151 31 26
-0.511468 -2.647624 0.407038 151 31 26
0.254297 -2.673550 0.109534 151 31 26
0.495167 -2.633514 0.081697 151 31 26
-0.773854 -2.584860 0.120306 151 31 26
-0.773854 -2.564821 0.028908 151 31 26
-0.297769 -2.843375 0.382847 151 31 26
-0.297769 -2.783256 0.108651 151 31 26
0.697145 -2.608025 0.132843 151 31 26
0.697145 -2.587984 0.041445 151 31 26
0.469594 -2.730770 0.355848 151 31 26
0.697145 -2.705281 0.303103 151 31 26
0.697145 -2.645164 0.028908 151 31 26
0.372097 -2.803967 0.382847 151 31 26
0.469594 -2.783928 0.344193 151 31 26
0.254297 -2.783885 0.085343 151 31 26
-0.021736 -2.804742 0.108651 151 31 26
-0.021736 -2.784700 0.017253 151 31 26
0.254297 -2.844002 0.382847 151 31 26
0.254297 -2.790847 0.394502 151 31 26
-0.021736 -2.811704 0.394502 151 31 26
-0.021736 -2.864861 0.382847 151 31 26
-0.297769 -2.672923 0.132843 151 31 26
-0.021736 -2.694407 0.132843 151 31 26
-0.021736 -2.674367 0.041444 151 31 26
0.254297 -2.733669 0.407038 151 31 26
-0.021736 -2.754526 0.407038 151 31 26
-0.021736 -2.731545 0.028908 151 31 26
0.495167 -2.743847 0.057506 151 31 26
-0.021736 -2.734487 0.315640 151 31 26
0.254297 -2.713630 0.330069 151 31 26
0.254297 -2.693591 0.224242 151 31 26
-0.021736 -2.714448 0.224241 151 31 26
-0.591384 -2.627585 0.366786 151 31 26
-0.297769 -2.713001 0.315640 151 31 26
-0.297769 -2.692962 0.224241 151 31 26
-0.644128 -2.607543 0.224241 151 31 26
0.469594 -2.673593 0.368385 151 31 26
0.697145 -2.648103 0.315640 151 31 26
0.697145 -2.628064 0.224241 151 31 26
0.530330 -2.653553 0.224241 151 31 26
-0.773854 -2.624941 0.303103 151 31 26
-0.591384 -2.684762 0.354249 151 31 26
-0.644128 -2.664723 0.211705 151 31 26
-0.773854 -2.604902 0.211705 151 31 26
-0.591384 -2.684762 0.354249 255 255 255
-0.591384 -2.627585 0.366786 255 255 255
-0.644128 -2.607543 0.224241 255 255 255
-0.644128 -2.664723 0.211705 255 255 255
0.254297 -2.823963 0.305878 151 31 26
0.254297 -2.803924 0.200050 151 31 26
0.530330 -2.763886 0.200050 151 31 26
-0.021736 -2.844820 0.291449 151 31 26
-0.297769 -2.823336 0.291448 151 31 26
-0.297769 -2.803297 0.200050 151 31 26
-0.021736 -2.824781 0.200050 151 31 26
0.495167 -2.690692 0.069160 151 31 26
0.697145 -2.665203 0.120306 151 31 26
0.697145 -2.685242 0.211705 151 31 26
0.530330 -2.710731 0.211705 151 31 26
-0.591384 -2.737918 0.342595 151 31 26
-0.644128 -2.717879 0.200050 151 31 26
-0.591384 -2.737918 0.342595 255 255 255
-0.773854 -2.678096 0.291449 255 255 255
-0.773854 -2.658057 0.200050 255 255 255
-0.644128 -2.717879 0.200050 255 255 255
-0.773854 -2.678096 0.291449 151 31 26
-0.511468 -2.757957 0.382847 182 37 32
-0.773854 -2.678096 0.291449 182 37 32
-0.591384 -2.737918 0.342595 182 37 32
-0.511468 -2.704802 0.394502 255 64 48
-0.511468 -2.647624 0.407038 255 64 48
-0.591384 -2.627585 0.366786 255 64 48
-0.591384 -2.684762 0.354249 255 64 48
-0.773854 -2.638016 0.108652 255 255 255
-0.000948 -1.124293 3.027263 0 0 0
0.137052 -1.180406 3.016360 0 0 0
0.194214 -1.315873 2.990041 0 0 0
0.137052 -1.451340 2.963719 0 0 0
-0.000948 -1.507452 2.952816 0 0 0
-0.138949 -1.451340 2.963719 0 0 0
-0.196111 -1.315873 2.990041 0 0 0
-0.138949 -1.180406 3.016360 0 0 0
-0.138997 -1.163333 2.911799 2 0 0
-0.000948 -1.107201 2.922704 20 4 3
-0.196179 -1.298847 2.885468 1 0 0
-0.138997 -1.163333 2.911799 0 0 0
-0.138997 -1.434361 2.859139 0 0 0
-0.000948 -1.490494 2.848234 0 0 0
0.137100 -1.434361 2.859139 0 0 0
0.137100 -1.434361 2.859139 27 5 5
0.194282 -1.298847 2.885468 1 0 0
0.137100 -1.163333 2.911799 3 1 1
0.194282 -1.298847 2.885468 0 0 0
1.567143 0.036183 0.497011 28 6 5
1.558744 -0.000293 0.836153 151 31 26
1.613479 -0.149869 0.797751 151 31 26
1.618248 -0.119845 0.434123 63 13 11
0.915970 1.236581 1.112848 0 0 0
0.891486 1.153967 1.364957 151 31 26
1.171759 0.841645 1.197779 151 31 26
1.179529 0.940128 0.908190 0 0 0
0.746795 0.718992 2.237352 151 31 26
0.334873 0.799068 2.282828 151 31 26
0.273103 0.245887 2.758338 151 31 26
0.577004 0.242831 2.701664 151 31 26
0.157851 -0.315790 2.922652 151 31 26
0.341702 -0.348407 2.912080 151 31 26
1.278783 0.580224 1.552579 151 31 26
1.151223 0.715517 1.609963 151 31 26
1.003444 0.404553 2.157391 151 31 26
1.101226 0.284755 2.126927 151 31 26
0.900992 -0.060423 2.622387 151 31 26
0.803529 0.030803 2.646236 151 31 26
0.468325 -0.469019 2.896857 151 31 26
0.548730 -0.545608 2.887189 151 31 26
1.547753 -0.048025 1.279958 151 31 26
1.375548 0.354204 1.454500 151 31 26
1.213336 0.077414 2.081208 151 31 26
1.380183 -0.231156 2.013167 151 31 26
0.972310 -0.209437 2.589121 151 31 26
1.097078 -0.470136 2.530921 151 31 26
0.602379 -0.680830 2.864697 151 31 26
0.662608 -0.832638 2.839448 151 31 26
1.669935 -1.282315 1.075397 151 31 26
1.631015 -0.242161 1.252810 151 31 26
1.466384 -0.390579 1.978014 151 31 26
1.487186 -1.328689 1.802359 151 31 26
1.157671 -0.596742 2.502656 151 31 26
1.242983 -1.326027 2.295883 151 31 26
0.697797 -0.921334 2.824695 151 31 26
0.737314 -1.312949 2.727520 151 31 26
1.321428 -2.169590 1.626705 151 31 26
1.071027 -2.011689 2.162739 151 31 26
0.675845 -1.736552 2.636592 151 31 26
1.096251 -2.502840 1.561302 151 31 26
0.929407 -2.361875 2.097396 151 31 26
0.575927 -1.988997 2.587245 151 31 26
0.691369 -2.786696 1.498354 151 31 26
0.583994 -2.596416 2.042526 151 31 26
0.373487 -2.190054 2.566841 151 31 26
0.402951 -2.911086 0.845901 151 31 26
0.792471 -2.824309 0.843728 151 31 26
0.379431 -2.864058 1.458680 151 31 26
0.295601 -2.651491 2.033900 151 31 26
0.187206 -2.229627 2.563605 151 31 26
0.000000 0.805562 2.321596 151 31 26
0.000000 0.229935 2.790427 151 31 26
0.000000 -0.285372 2.932498 151 31 26
1.267280 0.759428 0.770073 0 0 0
1.082594 0.969455 0.912449 0 0 0
1.122358 2.732561 0.453695 0 0 0
1.260166 2.569907 0.336025 0 0 0
0.401059 -2.905779 0.710387 151 31 26
0.000000 -2.988846 0.854712 151 31 26
0.000000 -2.977245 0.755604 151 31 26
1.583459 2.045989 0.115636 0 0 0
1.523534 2.038173 0.083390 0 0 0
1.350710 2.463040 0.258713 0 0 0
1.401538 2.475514 0.298953 0 0 0
0.363438 1.384617 1.216127 0 0 0
0.363998 2.947438 0.854529 0 0 0
0.881214 2.867150 0.640749 0 0 0
0.874277 1.206356 1.073042 0 0 0
0.000000 1.476873 1.316378 0 0 0
0.383123 1.422523 1.265240 0 0 0
0.383123 2.964053 0.914484 0 0 0
0.000000 2.988846 0.995855 0 0 0
1.642133 -0.192770 0.404730 151 31 26
1.637199 -0.214690 0.781109 151 31 26
1.681460 -1.234880 0.617735 151 31 26
1.691003 -1.195602 0.238762 151 31 26
1.431404 -2.130183 0.489844 151 31 26
1.429590 -2.066679 0.074118 151 31 26
1.170801 -2.470124 0.447536 151 31 26
1.164563 -2.392516 0.054382 151 31 26
0.779684 -2.767389 0.398837 151 31 26
0.765993 -2.691958 0.000000 151 31 26
0.000000 1.367851 1.527975 151 31 26
0.377627 1.308494 1.484759 151 31 26
0.854740 1.029974 1.743338 151 31 26
0.369613 1.142230 1.804837 151 31 26
1.433410 -2.200403 0.949543 151 31 26
1.178026 -2.560019 0.902932 151 31 26
0.000000 1.197731 1.858157 151 31 26
1.335504 0.548424 0.687725 1 0 0
1.308894 0.476143 1.076134 151 31 26
1.245227 0.654290 1.132454 151 31 26
1.082585 0.969466 0.912456 0 0 0
1.038166 0.865824 1.265600 151 31 26
0.818688 1.090042 1.406731 151 31 26
0.716761 0.677330 2.197370 151 31 26
0.555138 0.213651 2.647750 151 31 26
0.265481 0.213761 2.702246 151 31 26
0.323900 0.752618 2.238576 151 31 26
0.330025 -0.358867 2.848909 151 31 26
0.152893 -0.327197 2.858765 151 31 26
1.223567 0.551028 1.488375 151 31 26
1.050894 0.258601 2.095004 151 31 26
0.896457 0.452138 2.142318 151 31 26
1.001426 0.761281 1.598494 151 31 26
0.861084 -0.077836 2.574010 151 31 26
0.526439 -0.549796 2.826183 151 31 26
0.440572 -0.466327 2.836118 151 31 26
0.712517 0.063709 2.609818 151 31 26
1.415461 0.067024 1.385593 151 31 26
1.269300 -0.145039 2.007494 151 31 26
1.131117 0.110340 2.062860 151 31 26
1.287600 0.389522 1.454078 151 31 26
1.015114 -0.401925 2.502711 151 31 26
0.920673 -0.203216 2.546427 151 31 26
0.618940 -0.787782 2.787507 151 31 26
0.569076 -0.659491 2.808356 151 31 26
1.605838 -1.282713 1.130223 151 31 26
1.425897 -1.325007 1.780763 151 31 26
1.407483 -0.400417 1.952127 151 31 26
1.543322 -0.255474 1.317109 151 31 26
1.191998 -1.318086 2.256213 151 31 26
1.109555 -0.600634 2.458997 151 31 26
0.705488 -1.301029 2.672009 151 31 26
0.668804 -0.916072 2.766659 151 31 26
1.262315 -2.149930 1.607852 151 31 26
1.021447 -1.991538 2.125698 151 31 26
0.643383 -1.719307 2.582877 151 31 26
1.047973 -2.462158 1.545471 151 31 26
0.888335 -2.324387 2.063573 151 31 26
0.548200 -1.961515 2.535164 151 31 26
0.662481 -2.730150 1.484063 151 31 26
0.560596 -2.544889 2.010374 151 31 26
0.358734 -2.153240 2.515233 151 31 26
0.388141 -2.849503 0.848484 151 31 26
0.364556 -2.804101 1.444563 151 31 26
0.763710 -2.765982 0.846373 151 31 26
0.283553 -2.597418 2.001904 151 31 26
0.179609 -2.191228 2.512157 151 31 26
0.000000 0.197220 2.734160 151 31 26
0.000000 0.759209 2.275905 151 31 26
0.000000 -0.297884 2.868626 151 31 26
0.388201 -2.843478 0.717714 151 31 26
0.000000 -2.912691 0.762598 151 31 26
0.000000 -2.923806 0.857230 151 31 26
0.000000 1.438092 1.264107 0 0 0
0.000000 2.971942 0.933002 0 0 0
1.579484 -0.206162 0.393234 54 11 10
1.626473 -1.197960 0.230605 151 31 26
1.616598 -1.238517 0.661098 151 31 26
1.561501 -0.230685 0.852675 151 31 26
1.366847 -2.050165 0.068929 151 31 26
1.369120 -2.116836 0.508941 151 31 26
1.111848 -2.354493 0.057800 151 31 26
1.119235 -2.436416 0.475546 151 31 26
0.737371 -2.634544 0.010982 151 31 26
0.751637 -2.713063 0.424245 151 31 26
0.358766 1.232085 1.502189 151 31 26
0.000000 1.279405 1.564764 151 31 26
0.767418 0.982764 1.714496 151 31 26
0.354375 1.088707 1.771082 151 31 26
1.371355 -2.182406 0.941688 151 31 26
1.126765 -2.519939 0.901443 151 31 26
0.000000 1.143721 1.821837 151 31 26
0.399167 -2.900474 0.618288 151 31 26
0.388262 -2.837453 0.630359 151 31 26
0.539169 -2.740211 0.427051 151 31 26
0.548767 -2.803221 0.413860 151 31 26
0.548767 -2.803221 0.413860 182 37 32
0.539169 -2.740211 0.427051 182 37 32
0.666316 -2.641170 0.015457 182 37 32
0.666316 -2.641170 0.015457 151 31 26
0.674609 -2.704473 0.002792 151 31 26
0.915970 2.881708 0.693819 0 0 0
1.324465 0.777103 0.795645 0 0 0
1.304991 0.693178 1.118309 151 31 26
1.406232 0.416503 1.005737 151 31 26
1.410743 0.513687 0.689473 0 0 0
1.604611 -0.180597 1.261419 151 31 26
1.436470 -0.335255 1.990213 151 31 26
1.137161 -0.553886 2.512224 151 31 26
1.642133 -0.192770 0.404730 33 7 6
1.627542 1.806345 0.066732 0 0 0
1.570409 1.799427 0.034569 0 0 0
0.683466 -0.885212 2.830703 151 31 26
1.585672 1.639636 0.034088 0 0 0
1.642133 1.646192 0.065456 0 0 0
1.335504 0.548424 0.687725 1 0 0
1.302191 2.590103 0.383758 0 0 0
1.170500 2.741997 0.496172 0 0 0
1.170500 2.741997 0.496172 1 1 1
1.179529 0.940128 0.908190 0 0 0
0.000000 -2.965643 0.728024 151 31 26
0.000000 -2.901576 0.739496 151 31 26
0.000000 -2.231554 2.508888 151 31 26
0.000000 -2.653179 1.992913 151 31 26
0.000000 -2.895136 1.395903 151 31 26
0.000000 -2.271636 2.560170 151 31 26
0.000000 -2.709951 2.024743 151 31 26
0.000000 -2.958715 1.409835 151 31 26
0.657493 -2.786350 0.406786 151 31 26
0.713474 -2.696240 0.001923 151 31 26
1.642133 -0.192770 0.404730 80 17 14
1.435197 0.122729 0.964404 151 31 26
1.457494 0.171131 0.540479 7 2 2
1.498349 -0.053978 0.908540 151 31 26
1.518489 -0.017516 0.466856 5 1 1
1.479392 -0.094225 1.351351 151 31 26
1.457494 0.171131 0.540479 7 2 2
0.643872 -0.851927 2.777083 151 31 26
1.062334 -0.501279 2.480855 151 31 26
1.338392 -0.272728 1.979810 151 31 26
1.518489 -0.017516 0.466856 5 1 1
0.614619 -2.730570 0.426055 151 31 26
0.708024 -2.637281 0.012830 151 31 26
0.708757 -2.637212 0.012784 151 31 26
-1.567143 0.036183 0.497011 1 0 0
-1.618248 -0.119845 0.434123 3 1 0
-1.613479 -0.149869 0.797751 151 31 26
-1.558744 -0.000293 0.836153 151 31 26
-0.915970 1.236581 1.112848 0 0 0
-1.179529 0.940128 0.908190 0 0 0
-1.171759 0.841645 1.197779 151 31 26
-0.891486 1.153967 1.364957 151 31 26
-0.746795 0.718992 2.237352 151 31 26
-0.577004 0.242831 2.701664 151 31 26
-0.273103 0.245887 2.758338 151 31 26
-0.334873 0.799068 2.282828 151 31 26
-0.341701 -0.348407 2.912080 151 31 26
-0.157851 -0.315790 2.922652 151 31 26
-1.278783 0.580224 1.552579 151 31 26
-1.101225 0.284755 2.126927 151 31 26
-1.003444 0.404553 2.157391 151 31 26
-1.151223 0.715517 1.609963 151 31 26
-0.900992 -0.060423 2.622387 151 31 26
-0.548730 -0.545608 2.887189 151 31 26
-0.468325 -0.469019 2.896857 151 31 26
-0.803529 0.030803 2.646236 151 31 26
-1.547753 -0.048025 1.279958 151 31 26
-1.380183 -0.231156 2.013167 151 31 26
-1.213336 0.077414 2.081208 151 31 26
-1.375548 0.354204 1.454500 151 31 26
-1.097078 -0.470136 2.530921 151 31 26
-0.972309 -0.209437 2.589121 151 31 26
-0.662608 -0.832638 2.839448 151 31 26
-0.602379 -0.680830 2.864697 151 31 26
-1.669935 -1.282315 1.075397 151 31 26
-1.487185 -1.328689 1.802359 151 31 26
-1.466383 -0.390579 1.978014 151 31 26
-1.631014 -0.242161 1.252810 151 31 26
-1.242983 -1.326027 2.295883 151 31 26
-1.157671 -0.596742 2.502656 151 31 26
-0.737314 -1.312949 2.727520 151 31 26
-0.697797 -0.921334 2.824695 151 31 26
-1.321428 -2.169590 1.626705 151 31 26
-1.071027 -2.011689 2.162739 151 31 26
-0.675844 -1.736552 2.636592 151 31 26
-1.096250 -2.502840 1.561302 151 31 26
-0.929407 -2.361875 2.097396 151 31 26
-0.575926 -1.988997 2.587245 151 31 26
-0.691369 -2.786696 1.498354 151 31 26
-0.583994 -2.596416 2.042526 151 31 26
-0.373487 -2.190054 2.566841 151 31 26
-0.402951 -2.911086 0.845901 151 31 26
-0.379431 -2.864058 1.458680 151 31 26
-0.792470 -2.824309 0.843728 151 31 26
-0.295600 -2.651491 2.033900 151 31 26
-0.187205 -2.229627 2.563605 151 31 26
-1.267280 0.759428 0.770073 0 0 0
-1.260166 2.569907 0.336025 0 0 0
-1.122357 2.732561 0.453695 0 0 0
-1.082594 0.969455 0.912449 0 0 0
-0.401059 -2.905779 0.710387 151 31 26
-1.583459 2.045989 0.115636 0 0 0
-1.401537 2.475514 0.298953 0 0 0
-1.350709 2.463040 0.258713 0 0 0
-1.523534 2.038173 0.083390 0 0 0
-0.363438 1.384617 1.216127 0 0 0
-0.874277 1.206356 1.073042 0 0 0
-0.881213 2.867150 0.640749 0 0 0
-0.363998 2.947438 0.854529 0 0 0
-0.383123 2.964053 0.914484 0 0 0
-0.383123 1.422523 1.265240 0 0 0
-1.642133 -0.192770 0.404730 151 31 26
-1.691003 -1.195602 0.238762 151 31 26
-1.681459 -1.234880 0.617735 151 31 26
-1.637198 -0.214690 0.781109 151 31 26
-1.429589 -2.066679 0.074118 151 31 26
-1.431403 -2.130183 0.489844 151 31 26
-1.429589 -2.066679 0.074118 176 37 32
-1.164563 -2.392516 0.054382 161 33 28
-1.170801 -2.470124 0.447536 151 31 26
-1.431403 -2.130183 0.489844 155 32 27
-1.164563 -2.392516 0.054382 151 31 26
-0.765993 -2.691958 0.000000 151 31 26
-0.779684 -2.767389 0.398837 151 31 26
-0.377627 1.308494 1.484759 151 31 26
-0.854739 1.029974 1.743338 151 31 26
-0.369612 1.142230 1.804837 151 31 26
-1.433409 -2.200403 0.949543 151 31 26
-1.178026 -2.560019 0.902932 151 31 26
-1.245227 0.654290 1.132454 151 31 26
-1.308893 0.476143 1.076134 151 31 26
-1.335504 0.548424 0.687725 0 0 0
-0.818688 1.090042 1.406731 151 31 26
-1.038166 0.865824 1.265600 151 31 26
-1.082585 0.969466 0.912456 0 0 0
-0.716761 0.677330 2.197370 151 31 26
-0.323900 0.752618 2.238576 151 31 26
-0.265481 0.213761 2.702246 151 31 26
-0.555138 0.213651 2.647750 151 31 26
-0.152893 -0.327197 2.858765 151 31 26
-0.330025 -0.358867 2.848909 151 31 26
-1.223567 0.551028 1.488375 151 31 26
-1.001425 0.761281 1.598494 151 31 26
-0.896457 0.452138 2.142318 151 31 26
-1.050894 0.258601 2.095004 151 31 26
-0.861083 -0.077836 2.574010 151 31 26
-0.712517 0.063709 2.609818 151 31 26
-0.440572 -0.466327 2.836118 151 31 26
-0.526439 -0.549796 2.826183 151 31 26
-1.415461 0.067024 1.385593 151 31 26
-1.287599 0.389522 1.454078 151 31 26
-1.131117 0.110340 2.062860 151 31 26
-1.269300 -0.145039 2.007494 151 31 26
-0.920673 -0.203216 2.546427 151 31 26
-1.015113 -0.401925 2.502711 151 31 26
-0.569075 -0.659491 2.808356 151 31 26
-0.618940 -0.787782 2.787507 151 31 26
-1.605838 -1.282713 1.130223 151 31 26
-1.543322 -0.255474 1.317109 151 31 26
-1.407483 -0.400417 1.952127 151 31 26
-1.425897 -1.325007 1.780763 151 31 26
-1.109554 -0.600634 2.458997 151 31 26
-1.191998 -1.318086 2.256213 151 31 26
-0.668804 -0.916072 2.766659 151 31 26
-0.705488 -1.301029 2.672009 151 31 26
-1.262315 -2.149930 1.607852 151 31 26
-1.021446 -1.991538 2.125698 151 31 26
-0.643383 -1.719307 2.582877 151 31 26
-1.047973 -2.462158 1.545471 151 31 26
-0.888334 -2.324387 2.063573 151 31 26
-0.548200 -1.961515 2.535164 151 31 26
-0.662481 -2.730150 1.484063 151 31 26
-0.560596 -2.544889 2.010374 151 31 26
-0.358734 -2.153240 2.515233 151 31 26
-0.388141 -2.849503 0.848484 151 31 26
-0.763709 -2.765982 0.846373 151 31 26
-0.364556 -2.804101 1.444563 151 31 26
-0.283552 -2.597418 2.001904 151 31 26
-0.179609 -2.191228 2.512157 151 31 26
-0.388201 -2.843478 0.717714 151 31 26
-1.579484 -0.206162 0.393234 0 0 0
-1.561501 -0.230685 0.852675 151 31 26
-1.616598 -1.238517 0.661098 151 31 26
-1.626472 -1.197960 0.230605 151 31 26
-1.369119 -2.116836 0.508941 151 31 26
-1.366847 -2.050165 0.068929 151 31 26
-1.119235 -2.436416 0.475546 151 31 26
-1.111848 -2.354493 0.057800 151 31 26
-0.751637 -2.713063 0.424245 151 31 26
-0.737371 -2.634544 0.010982 151 31 26
-0.358766 1.232085 1.502189 151 31 26
-0.767418 0.982764 1.714496 151 31 26
-0.354375 1.088707 1.771082 151 31 26
-1.371355 -2.182406 0.941688 151 31 26
-1.126765 -2.519939 0.901443 151 31 26
-0.399167 -2.900474 0.618288 151 31 26
-0.548767 -2.803221 0.413860 151 31 26
-0.539169 -2.740211 0.427051 151 31 26
-0.388262 -2.837453 0.630359 151 31 26
-0.674609 -2.704473 0.002792 151 31 26
-0.666316 -2.641170 0.015457 151 31 26
-0.915970 2.881708 0.693819 0 0 0
-1.324465 0.777103 0.795645 0 0 0
-1.410743 0.513687 0.689473 0 0 0
-1.406231 0.416503 1.005737 151 31 26
-1.304991 0.693178 1.118309 151 31 26
-1.436469 -0.335255 1.990213 151 31 26
-1.604611 -0.180597 1.261419 151 31 26
-1.137160 -0.553886 2.512224 151 31 26
-1.642133 -0.192770 0.404730 0 0 0
-1.627542 1.806345 0.066732 0 0 0
-1.570409 1.799427 0.034569 0 0 0
-0.683466 -0.885212 2.830703 151 31 26
-1.642133 1.646192 0.065456 4 2 2
-1.585671 1.639636 0.034088 0 0 0
-0.915970 2.881708 0.693819 3 1 1
-0.915970 2.881708 0.693819 6 1 1
-1.335504 0.548424 0.687725 0 0 0
-1.627542 1.806345 0.066732 50 11 9
-1.302190 2.590103 0.383758 0 0 0
-1.170500 2.741997 0.496172 0 0 0
-1.179529 0.940128 0.908190 0 0 0
-1.170500 2.741997 0.496172 10 2 2
-1.302190 2.590103 0.383758 1 0 0
-0.713474 -2.696240 0.001923 151 31 26
-0.657493 -2.786350 0.406786 151 31 26
-1.642133 1.646192 0.065456 85 18 15
-1.642133 -0.192770 0.404730 6 1 1
-1.435197 0.122729 0.964404 151 31 26
-1.457494 0.171131 0.540479 0 0 0
-1.498349 -0.053978 0.908540 151 31 26
-1.518489 -0.017516 0.466856 0 0 0
-1.479391 -0.094225 1.351351 151 31 26
-1.457494 0.171131 0.540479 0 0 0
-0.643872 -0.851927 2.777083 151 31 26
-1.062334 -0.501279 2.480855 151 31 26
-1.338391 -0.272728 1.979810 151 31 26
-1.518489 -0.017516 0.466856 0 0 0
-0.614619 -2.730570 0.426055 151 31 26
-0.708024 -2.637281 0.012830 151 31 26
-0.708757 -2.637212 0.012784 151 31 26
0.737371 -2.634544 0.010982 255 255 255
0.708757 -2.637212 0.012784 255 255 255
0.708024 -2.637281 0.012830 255 255 255
0.674609 -2.704473 0.002792 164 41 31
0.708024 -2.637281 0.012830 164 41 31
0.708757 -2.637212 0.012784 164 41 31
-0.737371 -2.634544 0.010982 255 255 255
-0.708024 -2.637281 0.012830 255 255 255
-0.708757 -2.637212 0.012784 255 255 255
3 0 1 2
3 1 3 2
3 3 4 2
3 4 5 2
3 5 6 2
3 6 7 2
3 7 8 2
3 8 0 2
3 9 10 11
3 12 13 11
3 14 15 11
3 15 16 11
3 16 17 11
3 17 18 11
3 18 19 11
3 20 21 11
3 11 10 22
3 23 24 25
3 26 24 27
3 28 24 29
3 29 24 30
3 30 24 31
3 31 24 32
3 33 24 34
3 35 24 36
3 24 37 25
3 11 38 39
3 39 20 11
3 11 21 9
3 11 19 38
3 36 24 23
3 40 24 35
3 32 24 33
3 34 24 40
3 11 13 14
3 41 11 42
3 12 11 43
3 44 11 45
3 45 11 46
3 46 11 47
3 47 11 48
3 48 11 49
3 50 11 51
3 11 22 42
3 52 53 24
3 26 54 24
3 55 56 24
3 56 57 24
3 57 58 24
3 58 59 24
3 60 61 24
3 62 63 24
3 24 53 37
3 11 64 65
3 64 11 50
3 11 41 51
3 11 65 49
3 63 52 24
3 66 62 24
3 59 60 24
3 61 66 24
3 11 44 43
3 27 24 28
3 24 54 55
3 67 68 69
3 67 69 70
3 71 72 73
3 71 73 67
3 68 74 75
3 68 75 69
3 76 77 78
3 76 78 79
3 80 81 82
3 80 82 83
3 84 85 74
3 84 74 68
3 86 87 88
3 86 88 89
3 87 90 91
3 87 91 88
3 92 93 94
3 92 94 81
3 95 96 91
3 95 91 90
3 97 84 68
3 97 68 98
3 73 98 68
3 73 68 67
3 99 92 81
3 99 81 80
3 100 71 67
3 100 67 70
3 96 101 102
3 96 102 91
3 103 104 77
3 103 77 76
3 91 102 105
3 91 105 88
3 103 76 106
3 103 106 107
3 108 109 110
3 108 110 86
3 111 112 113
3 111 113 114
3 115 116 117
3 115 117 75
3 112 118 119
3 112 119 113
3 69 75 117
3 69 117 120
3 70 69 120
3 70 120 110
3 85 115 75
3 85 75 74
3 109 100 70
3 109 70 110
3 114 113 92
3 114 92 99
3 113 119 93
3 113 93 92
3 76 79 118
3 76 118 112
3 106 76 112
3 106 112 111
3 121 108 86
3 121 86 89
3 116 95 90
3 116 90 117
3 120 117 90
3 120 90 87
3 110 120 87
3 110 87 86
3 122 123 124
3 122 124 125
3 126 127 128
3 126 128 129
3 127 122 125
3 127 125 128
3 130 131 132
3 130 132 133
3 134 135 136
3 134 136 137
3 123 130 133
3 123 133 124
3 138 139 140
3 138 140 141
3 107 142 143
3 107 143 144
3 145 146 147
3 145 147 148
3 142 145 148
3 142 148 143
3 149 150 151
3 149 151 152
3 146 153 154
3 146 154 147
3 155 156 157
3 155 157 158
3 80 83 159
3 160 161 162
3 99 80 153
3 99 153 146
3 111 114 145
3 111 145 142
3 114 99 146
3 114 146 145
3 106 111 142
3 106 142 107
3 152 103 107
3 152 107 144
3 152 151 104
3 152 104 103
3 163 164 165
3 163 165 166
3 118 79 130
3 118 130 123
3 82 81 135
3 82 135 134
3 79 78 131
3 79 131 130
3 93 119 122
3 93 122 127
3 94 93 127
3 94 127 126
3 119 118 123
3 119 123 122
3 125 124 95
3 125 95 116
3 129 128 115
3 129 115 85
3 128 125 116
3 128 116 115
3 133 132 101
3 133 101 96
3 137 136 84
3 137 84 97
3 124 133 96
3 124 96 95
3 136 129 85
3 136 85 84
3 88 105 150
3 88 150 149
3 88 149 121
3 88 121 89
3 144 143 108
3 144 108 121
3 148 147 100
3 148 100 109
3 143 148 109
3 143 109 108
3 147 154 71
3 147 71 100
3 158 157 167
3 154 72 71
3 1 0 168
3 168 0 169
3 169 0 8
3 169 8 170
3 170 8 7
3 170 7 171
3 171 7 6
3 171 6 172
3 172 6 5
3 172 5 173
3 173 5 4
3 173 4 174
3 174 4 3
3 174 3 175
3 175 3 1
3 175 1 168
3 176 175 168
3 176 168 177
3 178 174 175
3 178 175 179
3 180 173 174
3 180 174 178
3 181 172 173
3 181 173 180
3 182 171 172
3 183 172 181
3 184 170 171
3 184 171 182
3 185 169 170
3 185 170 186
3 177 168 169
3 177 169 185
3 187 188 189
3 187 189 190
3 191 192 193
3 191 193 194
3 195 196 197
3 195 197 198
3 198 197 199
3 198 199 200
3 200 199 10
3 200 10 9
3 201 202 203
3 201 203 204
3 205 206 207
3 205 207 208
3 208 207 21
3 208 21 20
3 209 210 211
3 209 211 212
3 212 211 213
3 212 213 214
3 214 213 215
3 214 215 216
3 216 215 39
3 216 39 38
3 217 218 219
3 217 219 220
3 220 219 221
3 220 221 222
3 222 221 223
3 222 223 224
3 224 223 18
3 224 18 17
3 225 220 222
3 225 222 226
3 226 222 224
3 226 224 227
3 227 224 17
3 227 17 16
3 228 225 226
3 228 226 229
3 229 226 227
3 229 227 230
3 230 227 16
3 230 16 15
3 231 228 229
3 231 229 232
3 232 229 230
3 232 230 233
3 233 230 15
3 233 15 14
3 234 235 231
3 234 231 236
3 236 231 232
3 236 232 237
3 237 232 233
3 237 233 238
3 238 233 14
3 238 14 13
3 197 196 239
3 197 239 240
3 199 197 240
3 199 240 241
3 10 199 241
3 10 241 22
3 242 243 244
3 242 244 245
3 246 234 247
3 246 247 248
3 249 250 251
3 249 251 252
3 253 254 255
3 253 255 256
3 257 258 259
3 257 259 260
3 261 262 263
3 261 263 264
3 264 263 265
3 264 265 266
3 266 265 267
3 266 267 268
3 268 267 269
3 268 269 270
3 257 271 272
3 257 272 258
3 273 274 196
3 273 196 195
3 204 203 206
3 204 206 205
3 275 217 220
3 275 220 225
3 276 275 225
3 276 225 228
3 235 276 228
3 235 228 231
3 196 274 277
3 196 277 239
3 258 272 192
3 258 192 191
3 242 278 279
3 242 279 280
3 256 281 282
3 256 282 283
3 284 285 286
3 284 286 287
3 285 288 289
3 285 289 286
3 288 23 25
3 288 25 289
3 290 291 292
3 290 292 293
3 294 295 296
3 294 296 297
3 295 35 36
3 295 36 296
3 298 299 300
3 298 300 301
3 299 302 303
3 299 303 300
3 302 304 305
3 302 305 303
3 304 34 40
3 304 40 305
3 306 307 308
3 306 308 309
3 307 310 311
3 307 311 308
3 310 312 313
3 310 313 311
3 312 31 32
3 312 32 313
3 314 315 310
3 314 310 307
3 315 316 312
3 315 312 310
3 316 30 31
3 316 31 312
3 317 318 315
3 317 315 314
3 318 319 316
3 318 316 315
3 319 29 30
3 319 30 316
3 320 321 318
3 320 318 317
3 321 322 319
3 321 319 318
3 322 28 29
3 322 29 319
3 323 324 320
3 323 320 325
3 324 326 321
3 324 321 320
3 326 327 322
3 326 322 321
3 327 27 28
3 327 28 322
3 286 328 329
3 286 329 287
3 289 330 328
3 289 328 286
3 25 37 330
3 25 330 289
3 331 332 333
3 331 333 323
3 334 335 254
3 334 254 253
3 336 337 338
3 336 338 339
3 337 340 341
3 337 341 338
3 340 342 343
3 340 343 341
3 342 344 345
3 342 345 343
3 334 253 346
3 334 346 347
3 348 284 287
3 348 287 349
3 291 294 297
3 291 297 292
3 350 314 307
3 350 307 306
3 351 317 314
3 351 314 350
3 325 320 317
3 325 317 351
3 287 329 352
3 287 352 349
3 253 256 283
3 253 283 346
3 266 340 337
3 266 337 264
3 268 342 340
3 268 340 266
3 270 344 342
3 270 342 268
3 353 354 355
3 353 355 356
3 357 358 359
3 356 360 361
3 362 255 254
3 362 254 259
3 259 254 335
3 259 335 260
3 363 364 365
3 363 365 366
3 218 367 368
3 218 368 219
3 219 368 369
3 219 369 221
3 264 337 336
3 264 336 370
3 371 372 250
3 371 250 249
3 221 369 373
3 221 373 223
3 223 373 19
3 223 19 18
3 370 336 374
3 370 374 375
3 258 191 362
3 258 362 259
3 242 245 251
3 242 251 376
3 375 374 372
3 375 372 371
3 249 187 190
3 249 190 371
3 252 251 245
3 252 245 377
3 378 244 255
3 378 255 362
3 363 377 379
3 363 379 380
3 252 377 363
3 252 363 366
3 381 382 354
3 381 354 353
3 383 26 27
3 383 27 327
3 384 383 327
3 384 327 326
3 385 384 326
3 385 326 324
3 333 385 324
3 333 324 323
3 386 238 13
3 386 13 12
3 387 237 238
3 387 238 386
3 388 236 237
3 388 237 387
3 247 234 236
3 247 236 388
3 265 263 217
3 265 217 275
3 272 271 277
3 272 277 274
3 267 265 275
3 267 275 276
3 364 193 202
3 364 202 201
3 269 389 390
3 269 390 270
3 269 267 276
3 269 276 235
3 263 262 218
3 263 218 217
3 188 365 210
3 188 210 209
3 262 189 367
3 262 367 218
3 192 272 274
3 192 274 273
3 283 282 293
3 283 293 348
3 343 345 325
3 343 325 351
3 339 338 306
3 339 306 309
3 347 346 349
3 347 349 352
3 346 283 348
3 346 348 349
3 338 341 350
3 338 350 306
3 280 279 301
3 280 301 290
3 341 343 351
3 341 351 350
3 377 245 244
3 377 244 378
3 215 213 205
3 215 205 208
3 210 365 364
3 210 364 201
3 366 365 188
3 366 188 187
3 39 215 208
3 39 208 20
3 211 210 201
3 211 201 204
3 213 211 204
3 213 204 205
3 366 187 249
3 366 249 252
3 194 193 364
3 194 364 363
3 380 379 362
3 380 362 191
3 203 202 273
3 203 273 195
3 206 203 195
3 206 195 198
3 202 193 192
3 202 192 273
3 207 206 198
3 207 198 200
3 21 207 200
3 21 200 9
3 367 189 188
3 367 188 209
3 368 367 209
3 368 209 212
3 371 190 391
3 371 391 375
3 373 369 214
3 373 214 216
3 190 189 262
3 190 262 391
3 369 368 212
3 369 212 214
3 19 373 216
3 19 216 38
3 301 279 392
3 301 392 298
3 282 281 242
3 282 242 280
3 293 292 284
3 293 284 348
3 292 297 285
3 292 285 284
3 297 296 288
3 297 288 285
3 293 282 280
3 293 280 290
3 244 243 256
3 244 256 255
3 296 36 23
3 296 23 288
3 301 300 291
3 301 291 290
3 303 305 295
3 303 295 294
3 300 303 294
3 300 294 291
3 376 251 250
3 376 250 393
3 394 395 336
3 394 336 339
3 396 394 339
3 396 339 309
3 305 40 35
3 305 35 295
3 279 278 397
3 279 397 392
3 398 33 34
3 398 34 304
3 399 398 304
3 399 304 302
3 400 399 302
3 400 302 299
3 396 400 299
3 396 299 298
3 393 250 372
3 393 372 401
3 309 308 400
3 309 400 396
3 308 311 399
3 308 399 400
3 311 313 398
3 311 398 399
3 313 32 33
3 313 33 398
3 298 392 394
3 298 394 396
3 392 397 395
3 392 395 394
3 401 372 374
3 401 374 336
3 353 246 248
3 353 248 381
3 390 389 356
3 390 356 361
3 389 246 353
3 389 353 356
3 354 382 332
3 354 332 331
3 402 403 360
3 402 360 355
3 331 402 355
3 331 355 354
3 390 404 344
3 390 344 270
3 405 406 407
3 405 407 408
3 409 410 411
3 409 411 412
3 413 414 415
3 413 415 416
3 414 417 418
3 414 418 415
3 417 41 42
3 417 42 418
3 419 420 421
3 419 421 422
3 423 424 425
3 423 425 426
3 424 50 51
3 424 51 425
3 427 428 429
3 427 429 430
3 428 431 432
3 428 432 429
3 431 433 434
3 431 434 432
3 433 65 64
3 433 64 434
3 435 436 437
3 435 437 438
3 436 439 440
3 436 440 437
3 439 441 442
3 439 442 440
3 441 47 48
3 441 48 442
3 443 444 439
3 443 439 436
3 444 445 441
3 444 441 439
3 445 46 47
3 445 47 441
3 446 447 444
3 446 444 443
3 447 448 445
3 447 445 444
3 448 45 46
3 448 46 445
3 449 450 447
3 449 447 446
3 450 451 448
3 450 448 447
3 451 44 45
3 451 45 448
3 452 453 449
3 452 449 454
3 453 455 450
3 453 450 449
3 455 456 451
3 455 451 450
3 456 43 44
3 456 44 451
3 415 240 239
3 415 239 416
3 418 241 240
3 418 240 415
3 42 22 241
3 42 241 418
3 457 458 459
3 457 459 460
3 461 248 247
3 461 247 452
3 462 463 464
3 462 464 465
3 466 467 468
3 466 468 469
3 257 260 470
3 257 470 471
3 472 473 474
3 472 474 475
3 473 476 477
3 473 477 474
3 478 479 480
3 478 480 481
3 482 483 484
3 482 484 480
3 257 471 485
3 257 485 271
3 486 413 416
3 486 416 487
3 420 423 426
3 420 426 421
3 488 443 436
3 488 436 435
3 489 446 443
3 489 443 488
3 454 449 446
3 454 446 489
3 416 239 277
3 416 277 487
3 471 409 412
3 471 412 485
3 457 490 491
3 457 491 492
3 467 493 494
3 467 494 495
3 496 497 498
3 496 498 499
3 499 498 500
3 499 500 501
3 501 500 53
3 501 53 52
3 502 503 504
3 502 504 505
3 506 507 508
3 506 508 509
3 509 508 63
3 509 63 62
3 510 511 512
3 510 512 513
3 513 512 514
3 513 514 515
3 515 514 516
3 515 516 517
3 517 516 66
3 517 66 61
3 518 519 520
3 518 520 521
3 521 520 522
3 521 522 523
3 523 522 524
3 523 524 525
3 525 524 59
3 525 59 58
3 526 521 523
3 526 523 527
3 527 523 525
3 527 525 528
3 528 525 58
3 528 58 57
3 529 526 527
3 529 527 530
3 530 527 528
3 530 528 531
3 531 528 57
3 531 57 56
3 532 529 530
3 532 530 533
3 533 530 531
3 533 531 534
3 534 531 56
3 534 56 55
3 535 536 532
3 535 532 537
3 537 532 533
3 537 533 538
3 538 533 534
3 538 534 539
3 539 534 55
3 539 55 54
3 498 497 329
3 498 329 328
3 500 498 328
3 500 328 330
3 53 500 330
3 53 330 37
3 540 535 333
3 540 333 332
3 334 466 469
3 334 469 335
3 541 542 543
3 541 543 544
3 544 543 545
3 544 545 546
3 546 545 547
3 546 547 548
3 548 547 549
3 548 549 550
3 334 347 551
3 334 551 466
3 552 553 497
3 552 497 496
3 505 504 507
3 505 507 506
3 554 518 521
3 554 521 526
3 555 554 526
3 555 526 529
3 536 555 529
3 536 529 532
3 497 553 352
3 497 352 329
3 466 551 493
3 466 493 467
3 476 473 544
3 476 544 546
3 482 476 546
3 482 546 548
3 483 482 548
3 483 548 550
3 556 557 558
3 556 558 559
3 557 560 561
3 557 561 558
3 562 470 469
3 562 469 468
3 470 260 335
3 470 335 469
3 563 564 565
3 563 565 566
3 438 437 567
3 438 567 568
3 437 440 569
3 437 569 567
3 473 570 541
3 473 541 544
3 571 462 465
3 571 465 572
3 440 442 573
3 440 573 569
3 442 48 49
3 442 49 573
3 570 574 575
3 570 575 541
3 471 470 576
3 471 577 409
3 457 578 464
3 457 464 458
3 574 571 572
3 574 572 575
3 462 579 406
3 462 406 405
3 463 580 458
3 463 458 464
3 581 562 468
3 581 468 459
3 563 582 583
3 563 583 584
3 463 564 563
3 463 563 584
3 381 556 559
3 381 559 382
3 383 539 54
3 383 54 26
3 384 538 539
3 384 539 383
3 385 537 538
3 385 538 384
3 333 535 537
3 333 537 385
3 386 12 43
3 386 43 456
3 387 386 456
3 387 456 455
3 388 387 455
3 388 455 453
3 247 388 453
3 247 453 452
3 477 488 435
3 477 435 474
3 485 487 277
3 485 277 271
3 480 489 488
3 480 488 481
3 566 419 422
3 566 422 411
3 484 483 585
3 484 585 586
3 484 454 489
3 484 489 480
3 474 435 438
3 474 438 475
3 408 427 430
3 408 430 565
3 475 438 568
3 475 568 407
3 412 486 487
3 412 487 485
3 493 552 503
3 493 503 494
3 547 555 536
3 547 536 549
3 542 519 518
3 542 518 543
3 347 352 553
3 347 553 551
3 551 553 552
3 551 552 493
3 543 518 554
3 543 554 545
3 490 502 511
3 490 511 491
3 545 554 555
3 545 555 547
3 580 581 459
3 580 459 458
3 434 424 423
3 434 423 432
3 430 419 566
3 430 566 565
3 564 405 408
3 564 408 565
3 64 50 424
3 64 424 434
3 429 420 419
3 429 419 430
3 432 423 420
3 432 420 429
3 564 463 462
3 564 462 405
3 410 563 566
3 410 566 411
3 582 409 577
3 582 577 583
3 421 413 486
3 421 486 422
3 426 414 413
3 426 413 421
3 422 486 412
3 422 412 411
3 425 417 414
3 425 414 426
3 51 41 417
3 51 417 425
3 568 427 408
3 568 408 407
3 567 428 427
3 567 427 568
3 579 587 588
3 579 588 406
3 573 433 431
3 573 431 569
3 406 588 475
3 406 475 407
3 569 431 428
3 569 428 567
3 49 65 433
3 49 433 573
3 511 510 589
3 511 589 491
3 494 490 457
3 494 457 495
3 503 552 496
3 503 496 504
3 504 496 499
3 504 499 507
3 507 499 501
3 507 501 508
3 503 502 490
3 503 490 494
3 459 468 467
3 459 467 460
3 508 501 52
3 508 52 63
3 511 502 505
3 511 505 512
3 514 506 509
3 514 509 516
3 512 505 506
3 512 506 514
3 578 590 465
3 578 465 464
3 591 542 541
3 591 541 592
3 593 519 542
3 593 542 591
3 516 509 62
3 516 62 66
3 491 589 594
3 491 594 492
3 595 517 61
3 595 61 60
3 596 515 517
3 596 517 595
3 597 513 515
3 597 515 596
3 593 510 513
3 593 513 597
3 590 598 572
3 590 572 465
3 519 593 597
3 519 597 520
3 520 597 596
3 520 596 522
3 522 596 595
3 522 595 524
3 524 595 60
3 524 60 59
3 510 593 591
3 510 591 589
3 589 591 592
3 589 592 594
3 598 541 575
3 598 575 572
3 556 381 248
3 556 248 461
3 585 560 557
3 585 557 586
3 586 557 556
3 586 556 461
3 559 540 332
3 559 332 382
3 599 558 561
3 599 561 600
3 540 559 558
3 540 558 599
3 585 483 550
3 585 550 601
3 121 149 152
3 121 152 144
3 602 603 604
3 344 403 402
3 344 402 345
3 361 360 403
3 605 606 607
3 361 404 390
3 235 234 246
3 235 246 389
3 235 389 269
3 345 402 331
3 345 331 323
3 345 323 325
3 550 549 599
3 550 599 600
3 608 609 610
3 560 585 601
3 560 601 600
3 560 600 561
3 454 484 586
3 454 586 461
3 454 461 452
3 549 536 535
3 549 535 540
3 549 540 599
